<svg xmlns="http://www.w3.org/2000/svg" viewBox="0 0 400 470" width="100%" height="100%">
  <defs>
    <linearGradient id="furGradient" x1="0%" y1="0%" x2="0%" y2="100%">
      <stop offset="0%" stop-color="#B59072" />
      <stop offset="100%" stop-color="#8E6E50" />
    </linearGradient>
  </defs>

  <g id="foot-left"><ellipse cx="155" cy="395" rx="24" ry="15" fill="#8E6E50" /></g>
  <g id="foot-right"><ellipse cx="245" cy="395" rx="24" ry="15" fill="#8E6E50" /></g>
  <g id="body">
    <path d="M 140 210 C 120 265, 115 345, 145 385 C 160 400, 240 400, 255 385 C 285 345, 280 265, 260 210 Z" fill="url(#furGradient)" />
  </g>
  <g id="belly"><ellipse cx="200" cy="310" rx="48" ry="58" fill="#EFE0CB" /></g>
  <g id="arm-left">
    <path d="M 142 225 C 110 245, 105 300, 132 325 C 145 315, 150 270, 144 225 Z" fill="url(#furGradient)" />
  </g>
  <g id="arm-right">
    <path d="M 258 225 C 290 245, 295 300, 268 325 C 255 315, 250 270, 256 225 Z" fill="url(#furGradient)" />
  </g>
  <g id="ear-left">
    <circle cx="120" cy="105" r="20" fill="url(#furGradient)" />
    <circle cx="120" cy="105" r="12" fill="#8E6E50" />
  </g>
  <g id="ear-right">
    <circle cx="280" cy="105" r="20" fill="url(#furGradient)" />
    <circle cx="280" cy="105" r="12" fill="#8E6E50" />
  </g>
  <g id="head">
    <ellipse cx="200" cy="155" rx="88" ry="74" fill="url(#furGradient)" />
    <ellipse cx="200" cy="182" rx="64" ry="42" fill="#EFE0CB" />
  </g>

  <g id="expression-blooming">
    <path d="M 90 90 Q 90 102 78 102 Q 90 102 90 114 Q 90 102 102 102 Q 90 102 90 90 Z" fill="#8B7FF0" />
    <path d="M 310 120 Q 310 130 300 130 Q 310 130 310 140 Q 310 130 320 130 Q 310 130 310 120 Z" fill="#8B7FF0" />
    <ellipse cx="145" cy="172" rx="12" ry="6" fill="#8B7FF0" opacity="0.35" />
    <ellipse cx="255" cy="172" rx="12" ry="6" fill="#8B7FF0" opacity="0.35" />
    <g id="eye-left">
      <path d="M 153 153 Q 165 141 177 153" stroke="#3A2E25" stroke-width="4.5" stroke-linecap="round" fill="none" />
    </g>
    <g id="eye-right">
      <path d="M 223 153 Q 235 141 247 153" stroke="#3A2E25" stroke-width="4.5" stroke-linecap="round" fill="none" />
    </g>
    <g id="nose">
      <path d="M 190 166 C 190 160, 210 160, 210 166 C 210 172, 190 172, 190 166 Z" fill="#3A2E25" />
    </g>
    <g id="mouth">
      <path d="M 185 174 C 185 174, 188 194, 200 194 C 212 194, 215 174, 215 174 Z" fill="#3A2E25" />
      <path d="M 191 185 C 195 192, 205 192, 209 185 Z" fill="#8B7FF0" />
    </g>
    <g id="whiskers">
      <path d="M 130 175 L 110 173 M 132 185 L 112 187" stroke="#3A2E25" stroke-width="2" stroke-linecap="round" opacity="0.3" />
      <path d="M 270 175 L 290 173 M 268 185 L 288 187" stroke="#3A2E25" stroke-width="2" stroke-linecap="round" opacity="0.3" />
    </g>
  </g>
</svg>
