<svg xmlns="http://www.w3.org/2000/svg" viewBox="0 0 400 470" width="100%" height="100%">
  <defs>
    <linearGradient id="furGradient" x1="0%" y1="0%" x2="0%" y2="100%">
      <stop offset="0%" stop-color="#B59072" />
      <stop offset="100%" stop-color="#8E6E50" />
    </linearGradient>
  </defs>

  <g id="tail">
    <path d="M 175 350 C 150 450, 270 470, 330 410 C 365 365, 290 380, 230 345 Z" fill="url(#furGradient)" />
  </g>
  <g id="foot-left"><ellipse cx="155" cy="395" rx="24" ry="15" fill="#8E6E50" /></g>
  <g id="foot-right"><ellipse cx="245" cy="395" rx="24" ry="15" fill="#8E6E50" /></g>
  <g id="body">
    <path d="M 140 210 C 120 265, 115 345, 145 385 C 160 400, 240 400, 255 385 C 285 345, 280 265, 260 210 Z" fill="url(#furGradient)" />
  </g>
  <g id="belly"><ellipse cx="200" cy="310" rx="48" ry="58" fill="#EFE0CB" /></g>
  <g id="arm-left">
    <path d="M 142 225 C 110 245, 105 300, 132 325 C 145 315, 150 270, 144 225 Z" fill="url(#furGradient)" />
  </g>
  <g id="arm-right">
    <path d="M 258 225 C 290 245, 295 300, 268 325 C 255 315, 250 270, 256 225 Z" fill="url(#furGradient)" />
  </g>
  <g id="ear-left">
    <circle cx="120" cy="105" r="20" fill="url(#furGradient)" />
    <circle cx="120" cy="105" r="12" fill="#8E6E50" />
  </g>
  <g id="ear-right">
    <circle cx="280" cy="105" r="20" fill="url(#furGradient)" />
    <circle cx="280" cy="105" r="12" fill="#8E6E50" />
  </g>
  <g id="head">
    <ellipse cx="200" cy="155" rx="88" ry="74" fill="url(#furGradient)" />
    <ellipse cx="200" cy="182" rx="64" ry="42" fill="#EFE0CB" />
  </g>

  <g id="expression-worrying">
    <path d="M 256 134 C 260 144, 252 148, 248 144 C 246 140, 252 136, 256 134 Z" fill="#8B7FF0" />
    <g id="eye-left"><circle cx="165" cy="153" r="6.5" fill="#3A2E25" /></g>
    <g id="eye-right"><circle cx="235" cy="153" r="6.5" fill="#3A2E25" /></g>
    <g id="eyelid-left">
      <path d="M 154 139 L 170 131" stroke="#3A2E25" stroke-width="3" stroke-linecap="round" fill="none" />
    </g>
    <g id="eyelid-right">
      <path d="M 246 139 L 230 131" stroke="#3A2E25" stroke-width="3" stroke-linecap="round" fill="none" />
    </g>
    <g id="nose">
      <path d="M 190 168 C 190 162, 210 162, 210 168 C 210 174, 190 174, 190 168 Z" fill="#3A2E25" />
    </g>
    <g id="mouth">
      <path d="M 188 180 Q 194 176 200 180 Q 206 184 212 180" stroke="#3A2E25" stroke-width="3" stroke-linecap="round" fill="none" />
    </g>
    <g id="whiskers">
      <path d="M 130 177 L 110 179 M 132 187 L 112 191" stroke="#3A2E25" stroke-width="2" stroke-linecap="round" opacity="0.3" />
      <path d="M 270 177 L 290 179 M 268 187 L 288 191" stroke="#3A2E25" stroke-width="2" stroke-linecap="round" opacity="0.3" />
    </g>
  </g>
</svg>
